<svg xmlns="http://www.w3.org/2000/svg" viewBox="0 0 1417.32 1417.32"><path d="M207.58,207.52l.06-.08,0-.05A707.36,707.36,0,0,1,384.14,78.44C547.56-5.74,736.87-22.17,910.35,29.17a728.5,728.5,0,0,1,110.74,42.46,603.41,603.41,0,0,1,103.29,63c23.69,18,31.35,41.22,27.92,61a50.83,50.83,0,0,1-29,37.67c-18.77,8.68-44.64,7.23-71.87-12.88-11.43-7-23.09-13.73-34.85-20C879,126.87,725.25,107.62,585.47,140.05c-139.54,32.39-265.24,116.34-347.19,249.3q-9.37,15.21-18.07,31.48l-.07.12a551.79,551.79,0,0,0-34.71,79.41,517.05,517.05,0,0,0-21.29,83.58c-12.89,77.43-7.57,158.26,20.2,237,68.59,194.41,250.35,335.21,461.25,333.7,174.69-1.23,328.46-96,411.13-244,55.31-99,69.35-209.5,38.69-312.64a204.1,204.1,0,0,0-10.78-21.2c-24.59-41.64-63.56-61.78-108.19-35.4L901,586l-1,.63c-5.79,3.64-11.91,7.66-18.23,11.89s-12,8.19-17.2,11.92l-.05,0c-28,20-50.51,39.22-62.83,52.87-27.78,30.77-44.16,55.47-40.3,81.16,4.1,27.15,29.71,58.33,86.21,102.15l0,0c10.65,8.24,18.4,16.92,23.76,25.7,8.87,14.56,11.26,29.23,9.5,42.75A73.37,73.37,0,0,1,865.93,950h0a73.89,73.89,0,0,1-19.59,17.83,75.18,75.18,0,0,1-24.58,9.28,73.08,73.08,0,0,1-38-2.6l-.05,0c-12.86-4.59-24.93-13.44-33.87-28.1-5.33-8.74-9.52-19.56-12-32.68-11.6-61.28-31.15-101.41-52.74-120.27v0c-8.72-7.6-17.49-11.34-25.84-11.18s-16.9,4.19-25.13,12.12C614,813.79,597,854,588.59,915.6c-1.8,13.34-5.46,24.41-10.37,33.43-8.11,15-19.63,24.34-32.24,29.61a73.51,73.51,0,0,1-37.78,4.58,70,70,0,0,1-45.56-24.69,73.31,73.31,0,0,1-16.8-34.2l0,0c-2.45-13.5-.82-28.35,7.42-43.45,4.91-9,12.13-18,22.27-26.73a399,399,0,0,0,34.76-33.45A271.71,271.71,0,0,0,529,797.81c24.32-33.31,30.77-60.44,21.44-76.9a30.57,30.57,0,0,0-2.09-3,34.76,34.76,0,0,0-8.41-7.54,54.27,54.27,0,0,0-13-5.92c-27.28-8.73-71.34-5.37-129.21,14.85-12.61,4.42-24.07,6.2-34.31,5.95-17.16-.41-30.87-6.43-41.31-15.3l0,0a73.13,73.13,0,0,1-21.22-31.6,70.06,70.06,0,0,1,1.39-51.84,73.47,73.47,0,0,1,22.84-30.41l.05,0c10.87-8.31,24.75-13.59,41.76-13.13,10.29.25,21.66,2.63,34.09,7.73,57.59,23.52,100.9,28.91,127.69,21.18,11-3.14,18.75-8.54,23.07-15.69l0,0c4.3-7.12,5.43-16.6,3.19-28h0c-5.53-28.11-30.5-65.12-77.81-105.81-10.13-8.74-17.38-17.77-22.26-26.75-8.22-15.09-9.85-29.92-7.4-43.37l.07,0a73.13,73.13,0,0,1,16.73-34.19,70.47,70.47,0,0,1,45.61-24.74h0a73.34,73.34,0,0,1,37.71,4.52c12.56,5.24,24.08,14.62,32.24,29.57,4.9,9,8.57,20.1,10.37,33.46h0c9.69,70.82,23.91,108.6,45.39,125.72C656,542.77,685.48,541,726,532.32v0l.5-.11.06,0c3-.65,6.68-1.61,11.1-2.87,4.58-1.3,9-2.67,13.24-4.1,136.65-45.93,265.56-141.46,389.63-213.54l4-2.36C1180.18,288,1248.9,246.9,1316.68,346l.59.63.22.3.65.83.17.19a51.3,51.3,0,0,1,4.21,6.15c1,1.73,3.6,6.5,6.42,11.56l1.28,2.31,2.78,5,0,.09c1.09,2,2.13,4,2.91,5.51l2,3.95a707.05,707.05,0,0,1,73.42,234.39c27.39,210.62-39.77,431.21-201.53,592.95l0,0-.08.08,0,.07a712.78,712.78,0,0,1-125.41,99.9,709,709,0,0,1-667.79,44.69c-126.91-57.38-235.23-152.41-309-270.27a705,705,0,0,1-67.42-140C-47.46,695.11,8.35,406.69,207.56,207.49Z" style="fill:#82c341;fill-rule:evenodd"/></svg>